<?xml version="1.0" encoding="UTF-8" standalone="no"?>
<svg
   inkscape:export-ydpi="150"
   inkscape:export-xdpi="150"
   inkscape:export-filename="/home/aurelien/Documents/Editions du Caillou/Visuels/signature-logo.png"
   sodipodi:docname="chantal.svg"
   inkscape:version="1.2.2 (b0a8486541, 2022-12-01)"
   version="1.1"
   id="svg3739"
   viewBox="0 0 147.47613 47.745621"
   height="13.474875mm"
   width="41.62104mm"
   xmlns:inkscape="http://www.inkscape.org/namespaces/inkscape"
   xmlns:sodipodi="http://sodipodi.sourceforge.net/DTD/sodipodi-0.dtd"
   xmlns="http://www.w3.org/2000/svg"
   xmlns:svg="http://www.w3.org/2000/svg"
   xmlns:rdf="http://www.w3.org/1999/02/22-rdf-syntax-ns#"
   xmlns:cc="http://creativecommons.org/ns#"
   xmlns:dc="http://purl.org/dc/elements/1.1/">
  <defs
     id="defs3741" />
  <sodipodi:namedview
     inkscape:document-rotation="0"
     fit-margin-bottom="0"
     fit-margin-right="0"
     fit-margin-left="0"
     fit-margin-top="0"
     inkscape:window-maximized="1"
     inkscape:window-y="0"
     inkscape:window-x="46"
     inkscape:window-height="1043"
     inkscape:window-width="1874"
     showgrid="false"
     inkscape:current-layer="layer1"
     inkscape:document-units="px"
     inkscape:cy="20.693393"
     inkscape:cx="82.998501"
     inkscape:zoom="2.2229317"
     inkscape:pageshadow="2"
     inkscape:pageopacity="0.0"
     borderopacity="1.0"
     bordercolor="#666666"
     pagecolor="#ffffff"
     id="base"
     inkscape:showpageshadow="0"
     inkscape:pagecheckerboard="1"
     inkscape:deskcolor="#d1d1d1"
     showguides="true">
    <sodipodi:guide
       position="103.88289,8.523765"
       orientation="0,-1"
       id="guide403"
       inkscape:locked="false" />
  </sodipodi:namedview>
  <metadata
     id="metadata3744">
    <rdf:RDF>
      <cc:Work
         rdf:about="">
        <dc:format>image/svg+xml</dc:format>
        <dc:type
           rdf:resource="http://purl.org/dc/dcmitype/StillImage" />
      </cc:Work>
    </rdf:RDF>
  </metadata>
  <g
     transform="translate(-133.92498,-382.51436)"
     id="layer1"
     inkscape:groupmode="layer"
     inkscape:label="Calque 1">
    <g
       transform="matrix(1.2881757,0,0,1,4.605105,0.9851749)"
       id="g3773">
      <path
         style="opacity:1;fill:#a60d2c;fill-opacity:1;stroke:none;stroke-width:0.1;stroke-linecap:round;stroke-linejoin:round;stroke-miterlimit:4;stroke-dasharray:0.3, 0.3;stroke-dashoffset:0;stroke-opacity:1"
         id="path3769"
         d="m 145.46726,419.50762 c 0.2967,-1.09923 0.25368,-2.21892 0.10281,-3.33479 -0.25809,-1.35201 -0.76621,-2.68704 -1.64326,-3.7655 -0.16995,-0.20897 -0.36925,-0.39226 -0.55387,-0.58838 -0.20286,-0.14751 -0.3902,-0.31913 -0.60856,-0.44252 -0.20013,-0.1131 -0.41436,-0.20857 -0.63797,-0.26187 -0.21137,-0.0504 -0.43473,-0.0725 -0.65029,-0.0452 -0.48206,0.0611 -0.91832,0.32819 -1.23586,0.68795 -0.0343,0.0388 0.0294,0.0993 0.044,0.14892 -0.15669,0.33304 -0.34244,0.65388 -0.47006,0.9991 -0.69271,1.87379 -0.76392,3.99414 -0.6356,5.96487 0.0379,0.58243 0.12188,1.16096 0.18282,1.74144 0.42327,2.35147 0.94519,5.0606 2.64411,6.87713 0.23043,0.24638 0.51638,0.43424 0.77456,0.65136 0.27071,0.11355 0.52543,0.2775 0.81212,0.34065 0.97581,0.21495 1.80357,-0.27567 2.52522,-0.86745 0.0569,-0.0466 0.0755,-0.12636 0.11599,-0.18781 0.2605,-0.39548 0.52458,-0.78858 0.78687,-1.18287 0.24182,-0.49946 0.51241,-0.98598 0.72546,-1.49838 0.52739,-1.26837 0.91467,-2.62392 1.23879,-3.95457 0.64741,-2.65783 1.05204,-5.3642 1.47778,-8.06339 0.81842,-6.00389 1.5242,-12.02079 2.44812,-18.01 0.55342,-3.48116 1.23101,-6.94097 2.01393,-10.37737 0.17403,-0.67533 0.55239,-2.90772 1.60705,-2.80642 0.0575,0.0534 0.12896,0.0949 0.17261,0.16013 0.5325,0.79559 0.3907,3.2075 0.36994,4.0487 -0.38284,5.45288 -0.81941,10.90067 -1.14269,16.35798 -0.34745,5.93607 -0.54359,11.87916 -0.35708,17.82352 0.0922,1.87849 0.20686,3.76233 0.51795,5.61984 0.10824,0.64627 0.27118,1.49873 0.54362,2.12238 0.0823,0.18829 0.2159,0.34966 0.32385,0.52449 0.41316,0.29599 0.18744,0.25522 0.67673,0.12461 0.002,0.002 -0.0225,0.0337 -0.0247,0.0319 v 0 c -0.85464,0.55938 -0.4036,0.40125 -1.33394,0.5259 -0.1864,-0.11739 -0.40969,-0.1904 -0.5592,-0.35218 -0.43698,-0.47286 -0.6991,-1.32461 -0.84432,-1.90187 -0.45358,-1.80296 -0.53443,-3.67975 -0.66218,-5.5241 -0.19395,-5.95799 -0.0142,-11.91668 0.37923,-17.86444 0.36594,-5.51841 0.86809,-11.02388 1.35423,-16.53254 0.0727,-1.19859 0.10746,-1.5154 0.12543,-2.63044 0.009,-0.56517 0.0571,-1.2272 -0.22833,-1.74332 -0.32501,-0.0347 -0.24776,-0.005 0.45779,-0.58063 0.0777,-0.0634 -0.11147,0.16779 -0.15384,0.25875 -0.26247,0.56333 -0.37368,1.18817 -0.54034,1.78138 -0.78356,3.42556 -1.41198,6.88609 -1.99208,10.35114 -0.92475,5.98252 -1.6443,11.99144 -2.42853,17.99344 -0.57436,3.95562 -1.11291,8.26563 -2.63609,11.99057 -0.21081,0.51555 -0.47806,1.00618 -0.71709,1.50927 -0.26047,0.40003 -0.4761,0.83314 -0.78142,1.20008 -0.95346,1.14589 -2.39726,2.80751 -4.13066,2.3786 -0.29319,-0.0725 -0.55284,-0.24347 -0.82925,-0.36521 -0.2614,-0.22407 -0.55093,-0.41898 -0.78418,-0.67222 -1.70023,-1.84593 -2.2317,-4.57218 -2.64003,-6.95131 -0.28454,-2.98771 -0.45128,-6.03861 0.93702,-8.80075 0.43364,-0.50759 1.05919,-1.44333 1.76813,-1.80125 0.93708,-0.47309 1.87484,0.003 2.60122,0.60732 0.18733,0.19887 0.38836,0.38568 0.56197,0.59663 0.8926,1.08459 1.39564,2.42088 1.68841,3.77954 0.16903,1.12365 0.22359,2.25635 -0.0856,3.36437 0.0385,0.0474 -0.63225,0.59225 -0.67077,0.54482 z"
         inkscape:connector-curvature="0" />
      <path
         style="opacity:1;fill:#a60d2c;fill-opacity:1;stroke:none;stroke-width:0.1;stroke-linecap:round;stroke-linejoin:round;stroke-miterlimit:4;stroke-dasharray:0.3, 0.3;stroke-dashoffset:0;stroke-opacity:1"
         id="path3771"
         d="m 150.01889,406.54121 c -0.8571,0.28519 -1.7377,0.4371 -2.63982,0.39977 -1.00818,-0.12575 -1.5836,-0.64044 -2.10613,-1.47167 -0.30221,-0.62274 -0.59295,-1.42251 -0.20408,-2.08198 0.0746,-0.12657 0.18724,-0.22648 0.28086,-0.33971 0.45352,-0.38596 0.86841,-0.82255 1.36055,-1.15787 0.24293,-0.16553 1.14333,-0.28431 1.38291,-0.3055 0.95354,-0.0843 1.9177,-0.004 2.86983,0.0504 1.72836,0.1073 3.4809,0.32539 5.20547,0.0458 0.30457,-0.0494 0.60295,-0.1314 0.90443,-0.1971 0.66978,-0.22837 0.91296,-0.2707 1.51473,-0.62835 0.20575,-0.12229 0.36747,-0.31742 0.5861,-0.41485 0.11627,-0.0518 -0.34392,0.37439 -0.26728,0.27276 0.38684,-0.51295 0.81872,-0.99049 1.21616,-1.49527 0.09,-0.18184 0.17995,-0.36369 0.26992,-0.54553 -0.002,-0.002 0.0301,-0.0271 0.0319,-0.0248 v 0 c -0.0899,0.18192 -0.17982,0.36385 -0.26973,0.54577 -0.0251,0.13005 -0.0224,0.26872 -0.0754,0.39014 -0.0794,0.18219 -0.18292,0.35774 -0.31514,0.50611 -1.05894,1.18828 -2.1179,2.15803 -3.66801,2.58708 -0.306,0.0628 -0.60913,0.14175 -0.91801,0.18842 -1.71983,0.25985 -3.46319,0.0349 -5.18092,-0.11563 -0.92666,-0.079 -1.85578,-0.17271 -2.78693,-0.10169 -0.24071,0.0184 -0.48179,0.0452 -0.71791,0.0954 -0.19596,0.0417 -0.52816,0.37461 -0.57364,0.17949 -0.0597,-0.25598 0.31164,-0.42336 0.46746,-0.63504 -0.10582,0.10478 -0.22951,0.19418 -0.31746,0.31435 -0.44738,0.61125 -0.18598,1.39954 0.10237,2.00975 0.49619,0.81218 1.02723,1.29585 2.01001,1.39674 0.86974,0.0233 1.72545,-0.1066 2.55802,-0.36261 0.0633,0.0509 -0.65697,0.94645 -0.7203,0.89551 z"
         inkscape:connector-curvature="0" />
    </g>
    <g
       aria-label="Ch"
       id="text347"
       style="font-size:37.5px;line-height:125%;-inkscape-font-specification:sans-serif;text-align:center;letter-spacing:0px;word-spacing:0px;text-anchor:middle;fill:none;stroke:#000000;stroke-width:0.9375px">
      <path
         d="m 154.36248,414.41183 h -1.35 c -1.5,6.1125 -5.0625,6.675 -7.575,6.7125 -2.5125,0.0375 -4.4625,-1.9875 -5.7375,-4.1625 -1.425,-2.55 -1.95,-6 -1.95,-8.325 0,-2.85 0.6375,-5.55 1.65,-7.8375 0.825,-1.7625 3,-4.65 6.15,-4.65 2.775,0 4.1625,1.35 5.1,2.4 0.675,0.75 1.8,2.55 2.175,4.95 h 1.1625 l -0.3375,-8.3625 h -1.275 c 0.15,1.275 -0.825,1.3125 -1.65,1.0875 -0.4875,-0.15 -1.575,-1.125 -5.175,-1.125 -7.0125,0 -11.625,6.3 -11.625,13.6875 0,6.825 4.3875,13.5 11.55,13.5 7.7625,0 8.8125,-7.4625 8.8875,-7.875 z"
         style="font-family:'GFS Bodoni';-inkscape-font-specification:'GFS Bodoni';fill:#000000;stroke:none"
         id="path426" />
      <path
         d="m 180.425,421.94933 v -0.9375 c 0,0 -1.9875,0.075 -3.225,-0.45 0,-4.3875 -0.1125,-7.275 -0.1125,-11.025 0,-0.4875 -0.2625,-3.1875 -1.1625,-4.125 -1.6125,-1.6875 -2.5875,-1.6125 -4.3125,-1.6125 -1.95,0 -3.5625,1.2375 -4.0125,1.6125 -1.5375,1.275 -2.1,2.175 -2.625,3.3375 0,-1.3125 0.075,-3.3375 0.1125,-5.0625 0,-1.4625 0.0375,-2.925 0.075,-4.1625 0,-0.8625 0.075,-3.1125 0.075,-4.05 -4.7625,0.1875 -3.0375,0.1125 -6.1875,0 v 0.9375 h 0.0375 c 2.8875,0 3.075,0.4875 3.075,0.4875 0,4.65 0.075,7.275 0.1125,11.175 0.0375,4.0125 -0.0375,7.7625 -0.0375,12.375 0,0 -0.1875,0.5625 -3.075,0.5625 h -0.0375 v 0.9375 c 4.3875,-0.1875 4.65,-0.1875 9.4125,0 v -0.9375 h -1.2 c -2.1375,0 -2.175,-0.675 -2.175,-0.6375 0,-3.4875 -0.075,-5.5875 -0.0375,-10.0125 1.95,-4.1625 4.2375,-5.25 6.225,-5.2125 1.65,0.0375 2.8125,1.575 2.8875,4.4625 0.1125,4.0125 0,6.3 0,10.9125 0,0 -0.975,0.4875 -1.9125,0.4875 H 170.9 v 0.9375 c 4.725,-0.1875 4.725,-0.1875 9.525,0 z"
         style="font-family:'GFS Bodoni';-inkscape-font-specification:'GFS Bodoni';fill:#000000;stroke:none"
         id="path428" />
    </g>
    <g
       aria-label="ntal"
       id="text401"
       style="font-size:37.5px;line-height:125%;-inkscape-font-specification:sans-serif;text-align:center;letter-spacing:0px;word-spacing:0px;text-anchor:middle;fill:none;stroke:#000000;stroke-width:0.9375px">
      <path
         d="m 232.23867,421.91183 v -0.9375 c 0,0 -2.2875,0.3 -3.2625,-0.6 0,-0.8625 -0.075,-7.0875 -0.075,-10.8375 0,-1.3125 -0.375,-3.15 -1.0875,-4.2 -0.9375,-1.3875 -2.4375,-1.65 -4.125,-1.65 -1.95,0 -3.4875,1.125 -4.275,1.875 -1.425,1.3875 -2.3625,2.5875 -2.85,3.75 0,-1.3125 0.15,-3.525 0.1875,-5.25 -4.7625,0.1875 -1.95,0.1875 -5.925,0 v 0.9375 c 2.8875,0 3.1125,0.4875 3.1125,0.4875 0.1125,4.9875 0.075,8.6625 -0.0375,15.0375 0,0 -0.225,0.4875 -3.1125,0.4875 h 0.0375 v 0.8625 c 4.7625,-0.1875 3.8625,-0.15 8.5875,0.0375 v -0.9 h -0.6375 c -0.75,0 -1.575,0.0375 -2.0625,-0.4875 -0.1125,-3 -0.15,-7.0875 -0.1875,-9.975 1.9875,-4.1625 4.425,-5.3625 6.4125,-5.325 1.65,0.0375 3.1875,1.3125 3.2625,4.5 0.1125,3.9375 -0.075,6.5625 -0.15,10.725 0,0 -1.05,0.5625 -2.025,0.5625 h -1.3875 v 0.9 c 4.6875,-0.1875 4.875,-0.1875 9.6,0 z"
         style="font-family:'GFS Bodoni';-inkscape-font-specification:'GFS Bodoni';fill:#000000;stroke:none"
         id="path431" />
      <path
         d="m 245.81367,414.22433 h -0.8625 c 0,3.0375 -0.525,5.5125 -1.9875,5.775 -0.5625,0.1125 -1.4625,-0.225 -1.4625,-2.175 0,-1.95 -0.0375,-6.1125 0,-9.075 0,-0.5625 -0.0375,-2.475 0.0375,-3.7125 h 4.2 v -1.0125 c 0,0 -4.125,0 -4.2,0 v -5.8875 h -1.3875 c 0,0 0.1875,2.7 -0.7125,4.1625 -0.75,1.1625 -2.4,1.7625 -3.9,1.7625 v 0.975 h 2.175 c 0.3375,0 0.975,0 0.975,0 0,0.9375 0,2.325 0,3.15 0.0375,3.1875 -0.0375,7.725 0.0375,9.825 0.075,2.1 1.0875,4.275 3.3,4.275 3.375,0 3.7875,-5.775 3.7875,-8.0625 z"
         style="font-family:'GFS Bodoni';-inkscape-font-specification:'GFS Bodoni';fill:#000000;stroke:none"
         id="path433" />
      <path
         d="m 269.06364,414.33683 h -0.9 c -0.15,3.8625 -1.05,6.3375 -2.5125,5.6625 -1.6125,-0.75 -0.8625,-4.65 -0.8625,-11.55 0,-3.675 -3.825,-4.95 -6.7875,-4.95 -1.6875,0 -3.225,0.375 -4.425,0.8625 -0.8625,0.3375 -1.875,1.05 -2.4375,1.875 -0.6,0.75 -0.675,1.725 -0.5625,2.25 0.15,1.05 0.9375,1.65 1.8,1.6125 0.6375,-0.0375 2.1,-0.7125 2.25,-1.425 0.225,-0.6 -0.675,-0.675 -0.7125,-1.575 -0.0375,-0.9375 0.3375,-1.6875 1.2,-2.1 0.7875,-0.4125 1.725,-0.6 2.6625,-0.6 1.5,0 3.675,0.675 3.825,2.025 0.3,1.2375 0.225,1.5375 0.1875,3.3 -0.8625,1.125 -1.875,1.4625 -4.0125,1.95 -4.425,1.0125 -8.4,2.1 -8.4,5.925 0,2.775 2.0625,4.65 4.95,4.65 3.45,0 6.075,-2.175 7.4625,-4.275 0.3,2.8875 1.275,4.3875 3.45,4.3875 3.375,0 3.825,-5.7375 3.825,-8.025 z m -7.2,-3.75 c -0.2625,2.2125 -0.15,6.075 -0.15,6.075 -1.0875,2.4375 -3.4125,3.9 -5.4,3.9 -2.7,0 -3.7125,-1.5375 -3.45,-3.9375 0.375,-4.0875 6.525,-3.4125 9,-6.0375 z"
         style="font-family:'GFS Bodoni';-inkscape-font-specification:'GFS Bodoni';fill:#000000;stroke:none"
         id="path435" />
      <path
         d="m 281.40111,421.91183 v -0.9375 c -2.55,0 -2.925,-0.525 -2.925,-0.4875 0,-0.9375 -0.0375,-1.7625 -0.0375,-2.625 -0.0375,-2.3625 0.0375,-8.8125 0.0375,-10.95 0.0375,-2.8875 0.1875,-7.9875 0.225,-11.3625 -3.6375,0.1125 -2.4,0.15 -6.1125,-0.075 v 1.0125 c 2.7375,0 2.9625,0.4125 2.9625,0.4125 0.1125,4.8375 0.15,6.2625 0.15,10.0125 0,0.825 -0.15,12.6 -0.15,13.5375 0,0 -0.15,0.4875 -2.7375,0.4875 h 0.0375 v 0.9375 c 4.2375,-0.1875 4.3125,-0.15 8.55,0.0375 z"
         style="font-family:'GFS Bodoni';-inkscape-font-specification:'GFS Bodoni';fill:#000000;stroke:none"
         id="path437" />
    </g>
  </g>
</svg>
